<svg width="308" height="302" viewBox="0 0 308 302" fill="none" xmlns="http://www.w3.org/2000/svg">
<path d="M153.669 265.199C219.49 265.199 272.848 262.084 272.848 258.241C272.848 254.398 219.49 251.283 153.669 251.283C87.8478 251.283 34.4894 254.398 34.4894 258.241C34.4894 262.084 87.8478 265.199 153.669 265.199Z" fill="#F5F5F5"/>
<path d="M214.675 102.845L208.578 100.386C208.578 100.386 200.531 115.058 198.226 115.802C195.092 116.81 188.601 119.613 184.753 120.105C184.23 120.72 183.376 122.631 183.456 123.326C188.625 125.053 199.984 122.76 202.419 120.953C207.957 116.853 214.675 102.845 214.675 102.845Z" fill="#E58A7B"/>
<path d="M216.55 99.5072C217.687 103.705 211.528 112.151 211.528 112.151L203.457 107.627C203.457 107.627 204.969 104.154 206.813 100.62C209.77 94.9094 215.253 94.7188 216.55 99.5072Z" fill="#4CAF4F"/>
<path opacity="0.2" d="M216.55 99.5072C217.687 103.705 211.528 112.151 211.528 112.151L203.457 107.627C203.457 107.627 204.969 104.154 206.813 100.62C209.77 94.9094 215.253 94.7188 216.55 99.5072Z" fill="black"/>
<path opacity="0.2" d="M206.66 109.434L209.838 111.217L210.397 101.462C208.547 102.882 207.244 107.16 206.66 109.434Z" fill="black"/>
<path d="M211.239 96.3477C211.239 96.3477 204.957 110.325 208.621 136.351H233.374C233.767 132.552 232.464 114.013 237.178 96.1142C234.463 95.5835 231.716 95.2324 228.954 95.0631C225.451 94.8601 221.94 94.8601 218.437 95.0631C216.009 95.3096 213.603 95.7391 211.239 96.3477Z" fill="#4CAF4F"/>
<path opacity="0.2" d="M211.239 96.3477C211.239 96.3477 204.957 110.325 208.621 136.351H233.374C233.767 132.552 232.464 114.013 237.178 96.1142C234.463 95.5835 231.716 95.2324 228.954 95.0631C225.451 94.8601 221.94 94.8601 218.437 95.0631C216.009 95.3096 213.603 95.7391 211.239 96.3477Z" fill="black"/>
<g style="mix-blend-mode:multiply">
<path d="M205.498 258.794C205.461 259.458 214.847 259.993 226.458 259.993C238.07 259.993 247.523 259.458 247.56 258.794C247.597 258.13 238.217 257.602 226.6 257.602C214.982 257.602 205.541 258.136 205.498 258.794Z" fill="#E8ECF1"/>
</g>
<path d="M222.021 241.351L217.631 243.051L221.412 252.82L225.803 251.121L222.021 241.351Z" fill="#E58A7B"/>
<path d="M241.598 254.067H236.969L235.273 243.353H239.901L241.598 254.067Z" fill="#E58A7B"/>
<path d="M236.65 253.532H241.85C241.94 253.533 242.027 253.565 242.096 253.624C242.165 253.682 242.21 253.763 242.225 253.852L242.895 257.964C242.909 258.067 242.901 258.172 242.871 258.272C242.841 258.372 242.789 258.464 242.721 258.542C242.652 258.62 242.567 258.683 242.472 258.725C242.377 258.767 242.274 258.789 242.17 258.788C240.356 258.757 239.483 258.647 237.197 258.647C235.789 258.647 232.894 258.794 230.939 258.794C228.985 258.794 228.856 256.876 229.661 256.698C233.275 255.917 234.677 254.854 235.881 253.821C236.094 253.635 236.367 253.532 236.65 253.532Z" fill="#263238"/>
<path d="M221.283 251.947L226.2 250.508C226.288 250.483 226.382 250.489 226.465 250.525C226.549 250.561 226.618 250.624 226.661 250.705L228.505 254.393C228.548 254.487 228.57 254.588 228.569 254.691C228.569 254.794 228.546 254.896 228.502 254.989C228.458 255.082 228.394 255.164 228.315 255.23C228.236 255.296 228.144 255.344 228.044 255.37C226.256 255.862 225.057 256.163 222.82 256.815C221.277 257.263 219.703 257.995 218.179 258.481C217.122 258.819 214.638 258.831 213.354 258.831C211.454 258.831 211.03 256.827 211.848 256.735C213.907 256.507 214.183 256.612 215.321 256.04C217.181 255.227 218.868 254.062 220.287 252.61C220.555 252.305 220.898 252.076 221.283 251.947Z" fill="#263238"/>
<path d="M185.527 120.08L180.438 117.947L178.342 123.59C180.428 123.908 182.55 123.908 184.636 123.59L185.527 120.08Z" fill="#E58A7B"/>
<path d="M176.651 117.8L176.516 121.549L178.342 123.578L180.438 117.935L176.651 117.8Z" fill="#E58A7B"/>
<path d="M222.623 242.181L218.219 243.881L220.17 248.933L224.574 247.233L222.623 242.181Z" fill="#CF6F64"/>
<path d="M239.901 243.353H235.273L236.152 248.879H240.78L239.901 243.353Z" fill="#CF6F64"/>
<path opacity="0.2" d="M207.834 129.313C207.926 130.425 208.031 131.563 208.166 132.73L226.569 126.756C229.443 125.904 231.941 124.098 233.65 121.636C233.724 119.994 233.816 118.267 233.958 116.466C234.019 115.593 234.093 114.696 234.173 113.786C234.253 112.876 234.363 111.868 234.48 110.897L207.834 129.313Z" fill="black"/>
<path d="M213.845 109.151L213.231 109.078C213.593 106.004 215.886 103.582 218.302 103.644V104.259C216.187 104.216 214.171 106.398 213.845 109.151Z" fill="white"/>
<path d="M217.122 114.825H217.017V114.21C219.132 114.29 221.117 112.083 221.443 109.336L222.057 109.41C221.732 112.415 219.513 114.825 217.122 114.825Z" fill="white"/>
<path d="M228.61 83.2183C227.743 86.6052 226.723 92.8073 228.954 95.0631C228.954 95.0631 227.393 98.4991 221.105 98.4991C215.357 98.4991 218.437 95.0631 218.437 95.0631C222.26 94.1657 222.328 91.3751 221.824 88.732L228.61 83.2183Z" fill="#E58A7B"/>
<path d="M225.844 85.468L221.83 88.7319C221.954 89.3393 222.026 89.9562 222.045 90.5759C223.219 91.7438 225.573 88.7872 225.813 87.2751C225.935 86.6798 225.945 86.0671 225.844 85.468Z" fill="#CF6F64"/>
<path d="M214.927 83.1753C215.206 83.6594 215.583 84.0806 216.032 84.4127C216.482 84.7448 216.995 84.9806 217.54 85.1054C219.015 85.4312 219.752 84.0727 219.347 82.7081C218.984 81.4788 217.773 79.8253 216.273 80.1081C215.952 80.1742 215.651 80.3164 215.396 80.5227C215.141 80.729 214.939 80.9934 214.808 81.2938C214.676 81.5942 214.618 81.9217 214.639 82.2491C214.659 82.5764 214.758 82.894 214.927 83.1753Z" fill="#CF6F64"/>
<path d="M217.367 72.3385C215.069 73.3896 214.257 82.5237 217.146 83.876C220.035 85.2283 221.719 70.3408 217.367 72.3385Z" fill="#263238"/>
<path d="M229.311 78.1226C228.757 82.7081 228.696 85.4065 226.237 87.7546C225.475 88.5338 224.513 89.0873 223.456 89.3539C222.4 89.6206 221.29 89.5901 220.249 89.2658C219.209 88.9415 218.279 88.3359 217.561 87.516C216.843 86.6962 216.365 85.6938 216.181 84.6197C215.437 80.5014 216.464 73.697 221.062 71.8714C222.028 71.4453 223.09 71.2853 224.139 71.4081C225.187 71.5308 226.184 71.9319 227.026 72.5696C227.867 73.2073 228.523 74.0584 228.925 75.0348C229.326 76.0113 229.46 77.0773 229.311 78.1226Z" fill="#E58A7B"/>
<path d="M221.756 74.7112C225.162 73.8445 227.663 73.2544 226.766 76.088C225.58 79.8744 224.153 83.5379 226.065 83.7039C227.233 83.8084 232.396 81.6201 231.739 79.4011C231.167 77.4711 233.583 76.9424 234.013 75.9651C235.605 72.4246 231.05 72.8917 231.861 70.7404C232.673 68.589 228.173 65.1222 225.715 66.8495C221.713 69.6401 214.847 69.5971 218.455 65.0055C221.043 61.7292 216.427 62.3992 216.427 62.3992C216.427 62.3992 219.218 64.0527 214.522 66.6098C209.555 69.3389 214.11 76.672 221.756 74.7112Z" fill="#263238"/>
<path d="M231.118 83.1753C230.445 84.148 229.435 84.836 228.284 85.1054C226.766 85.4312 226.182 84.0727 226.754 82.7081C227.264 81.4788 228.665 79.8253 230.116 80.1081C231.566 80.3908 231.898 81.9705 231.118 83.1753Z" fill="#E58A7B"/>
<path d="M208.621 136.351C208.621 136.351 204.465 173.539 204.14 187.652C203.808 202.33 218.222 248.129 218.222 248.129L225.598 245.056C225.598 245.056 216.992 203.209 218.222 188.795C219.525 173.078 224.909 136.375 224.909 136.375L208.621 136.351Z" fill="#4CAF4F"/>
<path opacity="0.2" d="M218.947 146.561C215.634 153.433 217.865 167.023 219.66 175.075C220.342 169.39 221.154 163.218 221.922 157.508C221.848 148.73 221.166 141.95 218.947 146.561Z" fill="black"/>
<path d="M225.272 242.622C225.309 242.622 226.145 244.97 226.145 244.97L217.638 248.547L216.298 246.052L225.272 242.622Z" fill="#4CAF4F"/>
<path d="M217.404 136.351C217.404 136.351 220.582 171.719 222.684 184.965C224.996 199.478 234.056 247.81 234.056 247.81H242.532C242.532 247.81 237.455 200.652 236.496 186.281C235.451 170.693 233.374 136.351 233.374 136.351H217.404Z" fill="#4CAF4F"/>
<path d="M242.661 245.603C242.698 245.603 242.944 247.97 242.944 247.97H233.626L232.962 245.253L242.661 245.603Z" fill="#4CAF4F"/>
<path opacity="0.2" d="M239.416 242.8C239.397 242.8 239.378 242.794 239.363 242.781C239.349 242.769 239.339 242.752 239.336 242.733C239.287 242.302 234.707 199.705 233.847 186.797C232.913 172.795 231.032 141.735 231.013 141.422C231.012 141.412 231.014 141.401 231.017 141.392C231.02 141.382 231.026 141.373 231.033 141.366C231.04 141.358 231.048 141.352 231.057 141.348C231.067 141.344 231.077 141.342 231.087 141.342C231.107 141.342 231.127 141.349 231.141 141.363C231.156 141.377 231.165 141.396 231.167 141.416C231.167 141.729 233.066 172.764 234.001 186.791C234.861 199.699 239.44 242.265 239.483 242.726C239.485 242.737 239.485 242.747 239.482 242.757C239.48 242.767 239.475 242.776 239.469 242.785C239.462 242.793 239.454 242.799 239.445 242.804C239.436 242.809 239.426 242.812 239.416 242.813V242.8Z" fill="black"/>
<path d="M222.279 79.4012C222.279 79.7761 222.045 80.0773 221.799 80.0773C221.553 80.0773 221.375 79.7761 221.4 79.4012C221.424 79.0262 221.633 78.725 221.879 78.725C222.125 78.725 222.303 79.0324 222.279 79.4012Z" fill="#263238"/>
<path d="M218.062 79.4012C218.062 79.7761 217.822 80.0773 217.583 80.0773C217.343 80.0773 217.158 79.7761 217.177 79.4012C217.195 79.0262 217.417 78.725 217.663 78.725C217.908 78.725 218.087 79.0324 218.062 79.4012Z" fill="#263238"/>
<path d="M219.39 79.5917C218.877 80.7366 218.215 81.8092 217.423 82.7818C218.037 83.3965 219.187 83.1138 219.187 83.1138L219.39 79.5917Z" fill="#DF5753"/>
<path d="M219.5 84.6812C219.486 84.6812 219.472 84.6783 219.459 84.6727C219.446 84.667 219.434 84.6588 219.424 84.6484C219.414 84.638 219.407 84.6258 219.402 84.6124C219.397 84.599 219.395 84.5847 219.396 84.5705C219.397 84.5406 219.41 84.5125 219.432 84.4919C219.454 84.4713 219.483 84.4598 219.513 84.4599C219.983 84.4631 220.448 84.361 220.873 84.161C221.299 83.9611 221.674 83.6683 221.971 83.3043C221.993 83.2857 222.02 83.2755 222.048 83.2755C222.076 83.2755 222.104 83.2857 222.125 83.3043C222.145 83.3249 222.156 83.3525 222.156 83.3811C222.156 83.4098 222.145 83.4373 222.125 83.458C221.807 83.8448 221.406 84.1555 220.951 84.3672C220.497 84.5789 220.001 84.6861 219.5 84.6812Z" fill="#263238"/>
<path d="M223.029 78.2702C222.999 78.2853 222.967 78.2932 222.933 78.2932C222.9 78.2932 222.868 78.2853 222.838 78.2702C222.608 78.1215 222.346 78.0291 222.074 78.0002C221.802 77.9714 221.527 78.007 221.271 78.1042C221.246 78.1167 221.219 78.124 221.191 78.1258C221.163 78.1276 221.135 78.1238 221.109 78.1147C221.082 78.1055 221.058 78.0912 221.037 78.0725C221.017 78.0538 221 78.0311 220.988 78.0059C220.965 77.9512 220.965 77.8897 220.986 77.8346C221.008 77.7795 221.051 77.7351 221.105 77.7108C221.426 77.5796 221.774 77.5278 222.12 77.5599C222.466 77.592 222.798 77.707 223.09 77.8952C223.114 77.9112 223.134 77.9318 223.149 77.9557C223.165 77.9795 223.176 78.0062 223.181 78.0343C223.186 78.0623 223.185 78.091 223.179 78.1189C223.173 78.1467 223.162 78.1731 223.145 78.1964C223.114 78.2317 223.074 78.2573 223.029 78.2702Z" fill="#263238"/>
<path d="M216.433 77.0408C216.4 77.0328 216.371 77.0158 216.347 76.9916C216.327 76.9716 216.31 76.9477 216.299 76.9213C216.288 76.8949 216.283 76.8666 216.283 76.8379C216.283 76.8093 216.288 76.781 216.299 76.7546C216.31 76.7282 216.327 76.7043 216.347 76.6843C216.583 76.42 216.876 76.2138 217.204 76.0816C217.533 75.9494 217.887 75.8948 218.24 75.9221C218.269 75.9264 218.296 75.9366 218.32 75.9518C218.344 75.9671 218.365 75.9871 218.381 76.0108C218.397 76.0344 218.408 76.0611 218.414 76.0892C218.419 76.1173 218.419 76.1462 218.412 76.1741C218.399 76.231 218.366 76.2811 218.318 76.3151C218.271 76.3491 218.212 76.3645 218.154 76.3585C217.875 76.3409 217.595 76.3871 217.337 76.4936C217.078 76.6001 216.847 76.7641 216.661 76.9732C216.633 77.0043 216.597 77.027 216.556 77.039C216.516 77.0509 216.474 77.0515 216.433 77.0408Z" fill="#263238"/>
<path d="M239.557 102.163L233.165 100.46C233.165 100.46 226.895 115.894 224.676 116.896C221.664 118.273 214.036 123.043 210.79 125.299C210.612 126.067 210.754 128.102 211.159 128.661C216.691 127.653 227.282 123.578 229.495 121.506C234.542 116.78 239.557 102.163 239.557 102.163Z" fill="#E58A7B"/>
<path d="M235.095 254.344C234.783 254.369 234.472 254.284 234.216 254.104C234.137 254.033 234.077 253.942 234.044 253.84C234.011 253.739 234.004 253.631 234.025 253.526C234.029 253.461 234.05 253.398 234.087 253.344C234.124 253.29 234.175 253.247 234.234 253.219C234.75 252.955 236.195 253.871 236.361 253.975C236.379 253.986 236.393 254.003 236.401 254.023C236.409 254.043 236.41 254.065 236.404 254.086C236.399 254.107 236.388 254.127 236.373 254.143C236.358 254.159 236.339 254.171 236.318 254.178C235.917 254.276 235.507 254.332 235.095 254.344ZM234.48 253.385C234.433 253.375 234.385 253.375 234.339 253.385C234.315 253.397 234.296 253.416 234.282 253.438C234.269 253.461 234.263 253.488 234.265 253.514C234.248 253.586 234.251 253.66 234.273 253.73C234.294 253.8 234.334 253.864 234.388 253.914C234.628 254.129 235.23 254.153 236.023 254C235.551 253.689 235.019 253.479 234.462 253.385H234.48Z" fill="#4CAF4F"/>
<path d="M236.287 254.178C236.271 254.183 236.254 254.183 236.238 254.178C235.777 253.92 234.91 252.905 235.039 252.389C235.059 252.307 235.105 252.234 235.171 252.182C235.236 252.13 235.318 252.101 235.402 252.1C235.484 252.089 235.568 252.096 235.648 252.121C235.728 252.145 235.801 252.186 235.863 252.242C236.373 252.678 236.404 254.018 236.404 254.086C236.407 254.106 236.403 254.126 236.393 254.144C236.383 254.162 236.367 254.176 236.349 254.184C236.328 254.188 236.307 254.186 236.287 254.178ZM235.463 252.303H235.42C235.279 252.303 235.261 252.383 235.254 252.414C235.181 252.715 235.728 253.483 236.183 253.846C236.181 253.327 236.02 252.82 235.722 252.395C235.65 252.333 235.558 252.3 235.463 252.303Z" fill="#4CAF4F"/>
<path d="M218.775 253.576C218.399 253.707 217.989 253.707 217.613 253.576C217.528 253.529 217.456 253.462 217.403 253.381C217.35 253.299 217.319 253.205 217.312 253.108C217.304 253.048 217.312 252.986 217.335 252.929C217.357 252.872 217.394 252.822 217.441 252.783C217.933 252.34 219.943 252.783 220.17 252.869C220.192 252.874 220.211 252.887 220.224 252.905C220.238 252.923 220.245 252.945 220.244 252.967C220.245 252.99 220.239 253.013 220.227 253.033C220.215 253.052 220.197 253.068 220.177 253.078C219.724 253.282 219.255 253.449 218.775 253.576ZM217.773 252.844C217.703 252.858 217.637 252.89 217.583 252.936C217.563 252.951 217.548 252.971 217.539 252.994C217.531 253.017 217.529 253.041 217.533 253.065C217.537 253.13 217.558 253.192 217.592 253.247C217.626 253.302 217.674 253.347 217.73 253.379C218.056 253.551 218.812 253.416 219.789 253.004C219.131 252.838 218.449 252.784 217.773 252.844Z" fill="#4CAF4F"/>
<path d="M220.158 253.078H220.109C219.494 252.967 218.265 252.26 218.228 251.732C218.228 251.609 218.283 251.436 218.578 251.338C218.678 251.303 218.784 251.288 218.889 251.294C218.995 251.3 219.098 251.328 219.193 251.375C219.857 251.701 220.207 252.881 220.226 252.936C220.23 252.955 220.229 252.974 220.224 252.993C220.219 253.011 220.209 253.028 220.195 253.041C220.186 253.056 220.173 253.068 220.158 253.078ZM218.701 251.523H218.64C218.449 251.59 218.449 251.67 218.449 251.695C218.449 252.014 219.341 252.598 219.961 252.795C219.818 252.301 219.516 251.869 219.101 251.566C218.977 251.503 218.835 251.487 218.701 251.523Z" fill="#4CAF4F"/>
<path d="M211.313 124.936L204.902 127.887L204.158 129.731L206.525 131.323C206.525 131.323 210.95 130.843 212.21 127.997L211.313 124.936Z" fill="#E58A7B"/>
<path d="M211.583 128.766C211.44 127.534 211.033 126.347 210.391 125.287L211.405 124.524C212.168 125.747 212.655 127.121 212.831 128.551L211.583 128.766Z" fill="#263238"/>
<path d="M212.677 125.809C212.813 126.022 212.88 126.272 212.868 126.524C212.857 126.777 212.768 127.019 212.614 127.219C212.459 127.419 212.247 127.567 212.006 127.642C211.765 127.718 211.506 127.717 211.266 127.64C211.025 127.563 210.814 127.414 210.661 127.212C210.508 127.011 210.421 126.768 210.412 126.516C210.402 126.263 210.47 126.014 210.607 125.802C210.744 125.589 210.944 125.425 211.178 125.33C211.44 125.196 211.745 125.171 212.026 125.261C212.307 125.351 212.541 125.548 212.677 125.809Z" fill="#263238"/>
<path d="M200.568 130.272L201.423 131.132L207.176 128.674L204.902 127.887L200.568 130.272Z" fill="#E58A7B"/>
<path opacity="0.2" d="M225.272 242.622C225.309 242.622 226.145 244.97 226.145 244.97L217.638 248.547L216.298 246.052L225.272 242.622Z" fill="black"/>
<path opacity="0.2" d="M242.661 245.603C242.698 245.603 242.944 247.97 242.944 247.97H233.626L232.962 245.253L242.661 245.603Z" fill="black"/>
<path d="M241.223 100.392C242.913 105.844 236.306 113.3 236.306 113.3L227.178 109.576C228.26 106.424 229.507 103.332 230.915 100.312C233.718 94.2701 239.514 94.8909 241.223 100.392Z" fill="#4CAF4F"/>
<path opacity="0.2" d="M241.223 100.392C242.913 105.844 236.306 113.3 236.306 113.3L227.178 109.576C228.26 106.424 229.507 103.332 230.915 100.312C233.718 94.2701 239.514 94.8909 241.223 100.392Z" fill="black"/>
<path d="M150.522 45.7661H146.594V46.3992H150.522V45.7661Z" fill="#4CAF4F"/>
<path d="M201.366 70.8243L200.891 81.3737L201.524 81.4022L201.999 70.8528L201.366 70.8243Z" fill="#4CAF4F"/>
<path d="M200.144 48.6059H127.613L120.864 199.644H193.395L200.144 48.6059Z" fill="#4CAF4F"/>
<path opacity="0.56" d="M197.981 50.6835H125.449L118.7 201.721H191.232L197.981 50.6835Z" fill="#FAFAFA"/>
<path opacity="0.07" d="M195.817 52.7549H123.285L116.53 203.793H189.062L195.817 52.7549Z" fill="#4CAF4F"/>
<path d="M187.562 118.63H125.652L125.136 130.186H187.046L187.562 118.63Z" fill="white"/>
<path d="M159.699 110.196H126.027L125.799 115.366H159.471L159.699 110.196Z" fill="#4CAF4F"/>
<path d="M186.167 149.818H124.257L123.74 161.374H185.65L186.167 149.818Z" fill="white"/>
<path opacity="0.47" d="M174.814 176.981H133.182L132.561 190.829H174.193L174.814 176.981Z" fill="#4CAF4F"/>
<path d="M172.029 192.981H130.397C130.379 192.986 130.36 192.986 130.342 192.981C130.336 192.963 130.336 192.943 130.342 192.926L130.957 179.071C130.956 179.061 130.958 179.052 130.962 179.043C130.966 179.035 130.971 179.027 130.978 179.021C130.985 179.014 130.994 179.009 131.003 179.006C131.011 179.003 131.021 179.002 131.03 179.003H172.662C172.67 178.999 172.678 178.997 172.687 178.997C172.695 178.997 172.704 178.999 172.711 179.003C172.716 179.011 172.718 179.019 172.718 179.028C172.718 179.036 172.716 179.045 172.711 179.052L172.109 192.938C172.102 192.952 172.09 192.964 172.076 192.972C172.061 192.979 172.045 192.983 172.029 192.981ZM130.471 192.833H171.955L172.57 179.126H131.086L130.471 192.833Z" fill="white"/>
<path d="M152.427 141.385H124.632L124.404 146.561H152.194L152.427 141.385Z" fill="#4CAF4F"/>
<path d="M174.021 81.3004C173.862 84.6636 172.666 87.8951 170.597 90.5513C169.065 92.5577 167.095 94.1865 164.836 95.3128C162.577 96.439 160.09 97.0328 157.566 97.0484C155.526 97.064 153.505 96.6618 151.626 95.8666C149.748 95.0714 148.052 93.9 146.644 92.4247C145.235 90.9494 144.144 89.2013 143.436 87.2881C142.729 85.375 142.421 83.3372 142.531 81.3004C142.747 77.0739 144.57 73.0897 147.626 70.1624C150.682 67.2352 154.742 65.5861 158.973 65.5525C161.015 65.5334 163.038 65.9332 164.919 66.727C166.799 67.5208 168.497 68.6919 169.908 70.1677C171.318 71.6436 172.41 73.393 173.118 75.3078C173.825 77.2226 174.133 79.2622 174.021 81.3004Z" fill="white"/>
<path d="M175.502 68.8471C175.462 69.7414 175.144 70.6008 174.592 71.3058C174.184 71.8387 173.66 72.2714 173.059 72.5707C172.458 72.87 171.797 73.0282 171.126 73.0331C170.475 73.037 169.834 72.8817 169.257 72.5806C168.681 72.2795 168.187 71.8418 167.819 71.3058C167.331 70.5815 167.089 69.7194 167.13 68.8471C167.19 67.725 167.675 66.6678 168.487 65.8911C169.299 65.1144 170.377 64.6767 171.5 64.6673C172.043 64.6624 172.58 64.7685 173.079 64.9791C173.579 65.1897 174.03 65.5004 174.405 65.892C174.78 66.2836 175.071 66.7478 175.259 67.2561C175.448 67.7643 175.531 68.3058 175.502 68.8471Z" fill="#4CAF4F"/>
<path d="M132.321 124.408C132.292 124.903 132.075 125.369 131.716 125.711C131.357 126.053 130.881 126.246 130.385 126.252C130.145 126.255 129.908 126.208 129.687 126.116C129.466 126.023 129.266 125.886 129.1 125.713C128.934 125.54 128.806 125.335 128.722 125.111C128.639 124.886 128.602 124.647 128.615 124.408C128.641 123.911 128.857 123.444 129.216 123.101C129.576 122.758 130.054 122.566 130.551 122.564C130.79 122.562 131.027 122.609 131.248 122.701C131.468 122.794 131.668 122.931 131.833 123.104C131.999 123.277 132.128 123.481 132.212 123.706C132.296 123.93 132.333 124.169 132.321 124.408Z" fill="#263238"/>
<path d="M140.607 124.408C140.579 124.904 140.363 125.37 140.003 125.713C139.644 126.055 139.167 126.248 138.671 126.252C138.432 126.254 138.195 126.207 137.974 126.114C137.754 126.021 137.555 125.884 137.39 125.711C137.225 125.538 137.097 125.333 137.014 125.109C136.93 124.885 136.894 124.646 136.907 124.408C136.933 123.912 137.148 123.446 137.506 123.103C137.865 122.761 138.341 122.568 138.837 122.564C139.076 122.561 139.314 122.607 139.535 122.7C139.756 122.792 139.955 122.929 140.121 123.102C140.287 123.275 140.416 123.48 140.499 123.705C140.583 123.929 140.62 124.168 140.607 124.408Z" fill="#263238"/>
<path d="M148.899 124.408C148.871 124.904 148.655 125.37 148.295 125.713C147.936 126.055 147.459 126.248 146.963 126.252C146.723 126.254 146.486 126.207 146.266 126.114C146.045 126.021 145.846 125.884 145.68 125.711C145.514 125.539 145.386 125.334 145.302 125.11C145.218 124.886 145.181 124.647 145.192 124.408C145.22 123.912 145.436 123.445 145.796 123.103C146.155 122.76 146.632 122.568 147.129 122.564C147.368 122.561 147.606 122.607 147.827 122.7C148.048 122.792 148.247 122.929 148.413 123.102C148.579 123.275 148.708 123.48 148.791 123.705C148.875 123.929 148.912 124.168 148.899 124.408Z" fill="#263238"/>
<path d="M130.926 155.596C130.896 156.092 130.68 156.557 130.321 156.899C129.961 157.242 129.486 157.435 128.99 157.44C128.75 157.442 128.513 157.395 128.292 157.302C128.072 157.209 127.873 157.072 127.707 156.9C127.541 156.727 127.412 156.522 127.329 156.298C127.245 156.074 127.208 155.835 127.219 155.596C127.247 155.1 127.463 154.634 127.823 154.291C128.182 153.949 128.659 153.756 129.155 153.752C129.395 153.75 129.632 153.797 129.853 153.89C130.073 153.983 130.272 154.12 130.438 154.293C130.604 154.465 130.733 154.67 130.816 154.894C130.9 155.118 130.937 155.357 130.926 155.596Z" fill="#263238"/>
<path d="M139.212 155.596C139.184 156.091 138.969 156.557 138.61 156.899C138.252 157.241 137.777 157.435 137.282 157.44C137.042 157.443 136.804 157.397 136.583 157.304C136.362 157.212 136.163 157.075 135.997 156.902C135.831 156.729 135.702 156.524 135.619 156.299C135.535 156.075 135.499 155.835 135.511 155.596C135.539 155.1 135.755 154.634 136.115 154.291C136.474 153.949 136.951 153.756 137.447 153.752C137.687 153.75 137.923 153.797 138.144 153.89C138.364 153.983 138.563 154.12 138.728 154.293C138.893 154.466 139.021 154.67 139.105 154.895C139.188 155.119 139.224 155.357 139.212 155.596Z" fill="#263238"/>
<path d="M147.522 155.596C147.494 156.092 147.278 156.559 146.919 156.901C146.559 157.244 146.082 157.436 145.586 157.44C145.347 157.441 145.11 157.394 144.89 157.301C144.67 157.207 144.471 157.07 144.305 156.898C144.14 156.725 144.011 156.521 143.927 156.297C143.842 156.074 143.805 155.835 143.816 155.596C143.845 155.101 144.061 154.635 144.421 154.293C144.78 153.951 145.256 153.758 145.752 153.752C145.991 153.749 146.229 153.796 146.45 153.888C146.671 153.981 146.87 154.118 147.036 154.291C147.202 154.464 147.331 154.669 147.415 154.893C147.498 155.118 147.535 155.357 147.522 155.596Z" fill="#263238"/>
<path d="M155.796 155.596C155.766 156.092 155.55 156.557 155.19 156.899C154.831 157.242 154.355 157.435 153.859 157.44C153.62 157.441 153.383 157.394 153.163 157.301C152.943 157.207 152.744 157.07 152.579 156.898C152.413 156.725 152.284 156.521 152.2 156.297C152.116 156.074 152.078 155.835 152.089 155.596C152.119 155.101 152.335 154.635 152.694 154.293C153.053 153.951 153.529 153.758 154.025 153.752C154.265 153.75 154.502 153.797 154.722 153.89C154.943 153.983 155.142 154.12 155.308 154.293C155.474 154.465 155.602 154.67 155.686 154.894C155.77 155.118 155.807 155.357 155.796 155.596Z" fill="#263238"/>
<path d="M164.118 155.596C164.089 156.092 163.873 156.557 163.513 156.899C163.154 157.242 162.678 157.435 162.182 157.44C161.942 157.443 161.705 157.397 161.484 157.304C161.263 157.212 161.063 157.075 160.897 156.902C160.731 156.729 160.603 156.524 160.519 156.299C160.436 156.075 160.399 155.835 160.412 155.596C160.44 155.1 160.656 154.634 161.015 154.291C161.375 153.949 161.851 153.756 162.348 153.752C162.587 153.75 162.825 153.797 163.045 153.89C163.266 153.983 163.465 154.12 163.631 154.293C163.796 154.465 163.925 154.67 164.009 154.894C164.093 155.118 164.13 155.357 164.118 155.596Z" fill="#263238"/>
<path d="M162.86 80.4803C165.433 77.9644 165.57 73.9317 163.165 71.473C160.761 69.0143 156.726 69.0607 154.153 71.5766C151.581 74.0925 151.444 78.1252 153.848 80.5839C156.253 83.0426 160.287 82.9962 162.86 80.4803Z" fill="#4CAF4F"/>
<path d="M170.597 90.5514C169.065 92.5578 167.095 94.1866 164.836 95.3128C162.577 96.4391 160.09 97.0328 157.566 97.0485C155.118 97.0693 152.703 96.4875 150.533 95.3544C148.364 94.2214 146.506 92.5719 145.125 90.5514C148.112 87.5763 152.839 85.634 158.076 85.634C163.313 85.634 167.874 87.5763 170.597 90.5514Z" fill="#4CAF4F"/>
<path opacity="0.1" d="M162.86 80.4803C165.433 77.9644 165.57 73.9317 163.165 71.473C160.761 69.0143 156.726 69.0607 154.153 71.5766C151.581 74.0925 151.444 78.1252 153.848 80.5839C156.253 83.0426 160.287 82.9962 162.86 80.4803Z" fill="white"/>
<path opacity="0.1" d="M170.597 90.5514C169.065 92.5578 167.095 94.1866 164.836 95.3128C162.577 96.4391 160.09 97.0328 157.566 97.0485C155.118 97.0693 152.703 96.4875 150.533 95.3544C148.364 94.2214 146.506 92.5719 145.125 90.5514C148.112 87.5763 152.839 85.634 158.076 85.634C163.313 85.634 167.874 87.5763 170.597 90.5514Z" fill="white"/>
<path d="M80.1597 132.97C79.5758 134.249 78.9611 135.656 78.4264 137.021C77.8916 138.385 77.3445 139.793 76.8712 141.194C75.9049 143.956 75.1688 146.794 74.6707 149.677L74.5355 150.58C74.5226 150.735 74.5371 150.892 74.5785 151.041C74.7236 151.551 74.952 152.033 75.2546 152.468C76.044 153.593 76.9597 154.624 77.9838 155.541C79.0635 156.545 80.1961 157.491 81.3768 158.375C82.557 159.284 83.7986 160.169 85.0218 161.005L83.8724 163.163C80.9516 161.89 78.1792 160.301 75.605 158.424C74.2317 157.422 72.9922 156.249 71.917 154.932C71.2796 154.149 70.7826 153.261 70.4479 152.308C70.2533 151.712 70.1537 151.09 70.1528 150.464C70.1528 150.316 70.1528 150.101 70.1528 149.997V149.695L70.2143 149.081C70.5667 145.878 71.2401 142.719 72.2243 139.652C72.7037 138.139 73.2139 136.634 73.7979 135.164C74.3818 133.695 74.9842 132.257 75.7279 130.763L80.1597 132.97Z" fill="#E58A7B"/>
<path d="M84.1551 160.624L88.5009 158.424L87.376 163.194C87.376 163.194 84.3948 164.03 83.0118 162.579L84.1551 160.624Z" fill="#E58A7B"/>
<path d="M92.4778 159.204L91.3223 163.151L87.376 163.194L88.5009 158.424L92.4778 159.204Z" fill="#E58A7B"/>
<path d="M98.6123 109.957C98.8447 110.808 99.1683 111.633 99.5773 112.415C99.4578 112.551 99.3039 112.652 99.1319 112.707C98.9598 112.762 98.776 112.77 98.6 112.729L98.6123 109.957Z" fill="#DF5753"/>
<path d="M98.4832 109.994C98.7378 109.994 98.9442 109.677 98.9442 109.287C98.9442 108.896 98.7378 108.58 98.4832 108.58C98.2286 108.58 98.0222 108.896 98.0222 109.287C98.0222 109.677 98.2286 109.994 98.4832 109.994Z" fill="#263238"/>
<path d="M98.348 108.604L99.2823 108.34C99.2823 108.34 98.8274 109.065 98.348 108.604Z" fill="#263238"/>
<path d="M86.6077 114.468C87.167 117.327 87.7264 122.57 85.7226 124.481C85.7226 124.481 86.5093 127.383 91.8263 127.383C97.6718 127.383 94.6169 124.481 94.6169 124.481C91.4267 123.719 91.5067 121.353 92.066 119.128L86.6077 114.468Z" fill="#E58A7B"/>
<path d="M85.0525 107.953C85.3476 112.729 85.3722 114.757 87.7817 117.21C91.4144 120.898 97.217 119.496 98.3541 114.751C99.3806 110.448 98.7291 103.367 94.0514 101.468C93.0246 101.045 91.9069 100.891 90.804 101.02C89.7011 101.15 88.6494 101.559 87.7485 102.208C86.8476 102.857 86.1271 103.725 85.6554 104.731C85.1836 105.736 84.9762 106.845 85.0525 107.953Z" fill="#E58A7B"/>
<path d="M85.5258 102.58C83.1286 103.453 79.9323 102.802 81.1862 110.196C82.5139 118.027 80.4732 120.603 80.4732 120.603C80.4732 120.603 89.5642 122.539 98.8458 120.486C98.8458 120.486 96.0122 115.532 96.8051 111.88C97.8193 107.27 97.0203 105.568 97.0203 105.568C97.0203 105.568 88.8943 101.351 85.5258 102.58Z" fill="#263238"/>
<path d="M95.668 110.442C95.6705 111.35 95.9305 112.239 96.4179 113.005C97.0695 114.001 97.8378 113.62 98.0283 112.563C98.2005 111.635 98.0714 109.993 97.2416 109.354C96.4118 108.715 95.6803 109.342 95.668 110.442Z" fill="#E58A7B"/>
<path d="M83.4421 103.386C82.7537 101.449 86.036 98.4683 92.9819 99.6977C99.9277 100.927 100.229 106.711 100.229 106.711L98.8274 105.039L98.8889 106.797L91.7525 108.168L83.4421 103.386Z" fill="#263238"/>
<path d="M84.0322 124.807C83.9912 124.526 84.0614 124.241 84.2279 124.011C84.3944 123.782 84.644 123.626 84.9235 123.578C87.0871 123.221 92.0045 122.496 94.4755 122.84C96.3196 123.098 96.799 124.168 96.8789 125.047C96.8914 125.201 96.8708 125.356 96.8186 125.501C96.7663 125.646 96.6835 125.779 96.5757 125.889C96.468 126 96.3379 126.086 96.194 126.142C96.0502 126.198 95.896 126.223 95.7418 126.215L85.0587 125.735C84.8069 125.723 84.5671 125.623 84.3801 125.454C84.193 125.285 84.0701 125.056 84.0322 124.807Z" fill="#4CAF4F"/>
<path opacity="0.6" d="M84.0322 124.807C83.9912 124.526 84.0614 124.241 84.2279 124.011C84.3944 123.782 84.644 123.626 84.9235 123.578C87.0871 123.221 92.0045 122.496 94.4755 122.84C96.3196 123.098 96.799 124.168 96.8789 125.047C96.8914 125.201 96.8708 125.356 96.8186 125.501C96.7663 125.646 96.6835 125.779 96.5757 125.889C96.468 126 96.3379 126.086 96.194 126.142C96.0502 126.198 95.896 126.223 95.7418 126.215L85.0587 125.735C84.8069 125.723 84.5671 125.623 84.3801 125.454C84.193 125.285 84.0701 125.056 84.0322 124.807Z" fill="black"/>
<path d="M90.2097 232.191L94.1743 234.945L100.807 225.952L96.842 223.204L90.2097 232.191Z" fill="#E58A7B"/>
<path d="M80.965 232.013L85.1509 234.398L91.0211 224.889L86.8351 222.504L80.965 232.013Z" fill="#E58A7B"/>
<path d="M100.801 225.952L97.3829 230.587L93.4183 227.839L96.8359 223.204L100.801 225.952Z" fill="#CF6F64"/>
<path d="M86.8289 222.504L91.021 224.895L87.9968 229.794L83.8047 227.403L86.8289 222.504Z" fill="#CF6F64"/>
<path d="M93.5535 154.828C93.5535 154.828 109.031 174.331 106.124 192.987C103.782 208.053 90.1974 228.454 90.1974 228.454L83.8109 225.282C88.3125 216.262 92.154 206.927 95.3053 197.351C96.2771 194.378 96.5608 191.223 96.1348 188.125C95.7089 185.026 94.5845 182.065 92.8466 179.464C85.0034 168.013 72.4394 174.829 80.8912 154.828H93.5535Z" fill="#4CAF4F"/>
<path opacity="0.6" d="M93.5535 154.828C93.5535 154.828 109.031 174.331 106.124 192.987C103.782 208.053 90.1974 228.454 90.1974 228.454L83.8109 225.282C88.3125 216.262 92.154 206.927 95.3053 197.351C96.2771 194.378 96.5608 191.223 96.1348 188.125C95.7089 185.026 94.5845 182.065 92.8466 179.464C85.0034 168.013 72.4394 174.829 80.8912 154.828H93.5535Z" fill="black"/>
<path opacity="0.4" d="M101.145 167.355L98.895 165.117C98.895 165.296 103.253 192.2 104.476 199.761C105.198 197.552 105.751 195.292 106.13 192.999C107.568 183.847 104.562 174.497 101.145 167.355Z" fill="black"/>
<path d="M100.462 154.828C100.462 154.828 119.099 179.341 119.628 194.038C120.064 206.331 99.3437 230.15 99.3437 230.15L93.3199 226.253C93.3199 226.253 105.447 209.337 108.502 195.519C107.322 181.824 82.3664 154.828 82.3664 154.828H100.462Z" fill="#4CAF4F"/>
<path opacity="0.6" d="M100.462 154.828C100.462 154.828 119.099 179.341 119.628 194.038C120.064 206.331 99.3437 230.15 99.3437 230.15L93.3199 226.253C93.3199 226.253 105.447 209.337 108.502 195.519C107.322 181.824 82.3664 154.828 82.3664 154.828H100.462Z" fill="black"/>
<path d="M77.406 125.575C75.4144 126.049 73.5028 133.29 73.5028 133.29L81.2907 138.49C81.2907 138.49 83.8847 132.761 82.975 130.253C82.0345 127.641 79.9077 124.979 77.406 125.575Z" fill="#4CAF4F"/>
<path opacity="0.2" d="M78.9304 130.241L78.3895 136.554L81.2846 138.496C82.084 136.696 82.6758 134.811 83.0487 132.878L78.9304 130.241Z" fill="black"/>
<path d="M102.767 125.717C102.767 125.717 105.066 126.522 100.462 154.822H80.8789C81.2108 146.831 81.217 141.914 77.406 125.575C80.1481 125.01 82.9276 124.645 85.7225 124.481C88.6835 124.269 91.6559 124.269 94.6169 124.481C98.4402 124.832 102.767 125.717 102.767 125.717Z" fill="#4CAF4F"/>
<path d="M104.759 130.241C105.202 131.47 105.669 132.792 106.16 134.064C106.652 135.336 107.119 136.646 107.617 137.937L109.123 141.797L109.504 142.762L109.701 143.241L109.793 143.481C109.793 143.524 109.793 143.524 109.793 143.518C109.681 143.359 109.534 143.229 109.363 143.137C109.12 142.994 108.846 142.911 108.564 142.897C108.33 142.89 108.097 142.934 107.882 143.026C107.599 143.155 107.599 143.21 107.605 143.204C107.656 143.163 107.702 143.116 107.74 143.063C108.08 142.616 108.375 142.136 108.619 141.631C108.908 141.065 109.185 140.463 109.461 139.854C110.002 138.625 110.5 137.353 110.998 136.068C111.496 134.783 111.969 133.486 112.43 132.177L113.832 128.255L116.198 128.87C115.731 131.673 115.129 134.402 114.403 137.181C114.053 138.564 113.641 139.934 113.174 141.317C112.94 142.012 112.682 142.7 112.387 143.407C112.08 144.174 111.701 144.911 111.256 145.608C111.093 145.842 110.912 146.064 110.715 146.272C110.401 146.611 110.02 146.881 109.597 147.064C109.22 147.226 108.813 147.302 108.404 147.286C107.946 147.269 107.5 147.135 107.107 146.899C106.644 146.61 106.26 146.21 105.988 145.737C105.896 145.577 105.816 145.417 105.761 145.3L105.644 145.067L105.411 144.587L104.943 143.635C104.329 142.356 103.714 141.065 103.179 139.768C102.645 138.471 102.079 137.156 101.55 135.834C101.022 134.513 100.549 133.191 100.1 131.765L104.759 130.241Z" fill="#E58A7B"/>
<path d="M102.767 125.717C105.122 126.276 107.771 133.234 107.771 133.234L100.77 139.191C100.77 139.191 96.2396 131.605 97.1555 129.104C98.1082 126.497 99.6941 124.985 102.767 125.717Z" fill="#4CAF4F"/>
<path d="M114.944 126.055L117.403 124.002L119.112 126.663L117.852 128.882C117.852 128.882 115.848 130.726 114.078 129.786C113.797 129.154 113.729 128.448 113.886 127.775C114.042 127.102 114.414 126.498 114.944 126.055Z" fill="#E58A7B"/>
<path d="M121.841 124.008L121.656 124.678L117.766 125.33L117.384 124.002L121.841 124.008Z" fill="#E58A7B"/>
<path d="M99.8232 230.464L92.8036 225.927L94.0637 223.739L101.95 228.589L99.8232 230.464Z" fill="#4CAF4F"/>
<path d="M87.8985 234.078C87.2826 234.003 86.6908 233.793 86.1651 233.463C86.1434 233.456 86.1246 233.442 86.1113 233.423C86.098 233.404 86.0909 233.382 86.0909 233.359C86.0909 233.336 86.098 233.313 86.1113 233.295C86.1246 233.276 86.1434 233.262 86.1651 233.254C86.3557 233.193 88.0092 232.683 88.4886 233.076C88.5425 233.121 88.5834 233.179 88.6072 233.245C88.631 233.311 88.6367 233.382 88.6238 233.451C88.6153 233.562 88.5786 233.668 88.5173 233.761C88.456 233.853 88.3721 233.929 88.2735 233.98C88.1584 234.042 88.0296 234.076 87.8985 234.078ZM86.5155 233.402C87.2838 233.795 87.8985 233.937 88.1936 233.789C88.2578 233.753 88.3119 233.702 88.3506 233.64C88.3893 233.577 88.4114 233.506 88.4148 233.432C88.4148 233.334 88.4148 233.291 88.3595 233.267C88.1014 233.058 87.1793 233.217 86.5032 233.402H86.5155Z" fill="#263238"/>
<path d="M86.2081 233.506C86.1757 233.506 86.1448 233.493 86.1221 233.469C86.1129 233.452 86.1082 233.433 86.1082 233.414C86.1082 233.395 86.1129 233.376 86.1221 233.359C86.1221 233.303 86.5216 231.97 87.1486 231.668C87.2287 231.632 87.3157 231.613 87.4037 231.613C87.4917 231.613 87.5787 231.632 87.6588 231.668C87.7451 231.696 87.8198 231.751 87.8711 231.826C87.9223 231.9 87.9471 231.99 87.9415 232.08C87.8985 232.633 86.7736 233.396 86.2573 233.525L86.2081 233.506ZM87.4006 231.828C87.3408 231.83 87.2821 231.845 87.2285 231.871C86.8474 232.056 86.5339 232.775 86.3803 233.211C86.9212 232.984 87.6649 232.381 87.6895 232.043C87.6895 231.988 87.6895 231.92 87.5481 231.859C87.5021 231.834 87.4522 231.818 87.4006 231.81V231.828Z" fill="#263238"/>
<path d="M96.6699 236.733C95.9753 236.733 95.0103 235.842 94.4817 235.295C94.4682 235.276 94.4609 235.254 94.4609 235.23C94.4609 235.207 94.4682 235.185 94.4817 235.166C94.4938 235.146 94.5111 235.13 94.5316 235.119C94.5522 235.108 94.5753 235.103 94.5985 235.104C94.8443 235.104 96.9773 235.424 97.2784 236.026C97.3104 236.08 97.3272 236.142 97.3272 236.205C97.3272 236.267 97.3104 236.329 97.2784 236.383C97.2333 236.477 97.165 236.558 97.0801 236.618C96.9952 236.678 96.8963 236.716 96.7929 236.727L96.6699 236.733ZM94.8874 235.381C95.6619 236.131 96.3441 236.549 96.7314 236.5C96.7992 236.491 96.8638 236.466 96.9195 236.426C96.9753 236.386 97.0204 236.334 97.051 236.272C97.0648 236.251 97.0721 236.227 97.0721 236.202C97.0721 236.177 97.0648 236.152 97.051 236.131C96.8912 235.799 95.7541 235.516 94.8874 235.381Z" fill="#263238"/>
<path d="M94.955 235.35C94.817 235.354 94.679 235.344 94.5431 235.32C94.5242 235.317 94.5063 235.309 94.4912 235.297C94.4761 235.285 94.4643 235.27 94.4571 235.252C94.4479 235.234 94.4431 235.214 94.4431 235.194C94.4431 235.173 94.4479 235.153 94.4571 235.135C94.494 235.092 95.3238 234.09 96.1106 234.023C96.3333 234.005 96.5539 234.076 96.7252 234.219C96.965 234.428 96.9527 234.613 96.8912 234.73C96.7375 235.148 95.6741 235.35 94.955 235.35ZM94.7952 235.123C95.4836 235.16 96.5839 234.932 96.7252 234.631C96.7252 234.631 96.7744 234.533 96.6146 234.398C96.551 234.342 96.4767 234.301 96.3963 234.275C96.316 234.25 96.2313 234.241 96.1474 234.25C95.6174 234.398 95.1455 234.705 94.7952 235.129V235.123Z" fill="#263238"/>
<path d="M86.3741 232.842L81.1616 231.367C81.0718 231.34 80.9751 231.347 80.89 231.387C80.8049 231.426 80.7375 231.496 80.7006 231.582L78.9427 235.535C78.9014 235.636 78.882 235.745 78.8858 235.854C78.8896 235.963 78.9164 236.071 78.9646 236.169C79.0128 236.267 79.0812 236.354 79.1654 236.423C79.2495 236.493 79.3475 236.544 79.4528 236.574C81.2969 237.053 82.182 237.188 84.4747 237.846C85.8885 238.239 87.9046 238.971 89.8531 239.524C91.8017 240.077 92.4532 238.178 91.6972 237.772C88.2796 235.965 88.0091 234.699 87.0748 233.347C86.9075 233.102 86.6595 232.923 86.3741 232.842Z" fill="#4CAF4F"/>
<path d="M94.623 234.576L90.1728 231.502C90.0973 231.447 90.0043 231.422 89.9114 231.431C89.8185 231.44 89.7322 231.483 89.6688 231.552L86.7183 234.723C86.6464 234.805 86.5928 234.902 86.561 235.006C86.5292 235.11 86.52 235.22 86.5339 235.328C86.5479 235.436 86.5847 235.54 86.6419 235.633C86.6992 235.726 86.7755 235.806 86.8658 235.867C88.4333 236.918 89.2446 237.342 91.2054 238.7C92.4348 239.536 94.8136 241.393 96.4732 242.548C98.1328 243.704 99.3683 242.118 98.7782 241.491C96.1351 238.67 95.5573 236.899 95.1209 235.295C95.0452 235.004 94.8688 234.749 94.623 234.576Z" fill="#4CAF4F"/>
<path d="M91.0149 228.859L82.9934 224.87L83.8232 222.694L92.3918 226.899L91.0149 228.859Z" fill="#4CAF4F"/>
<path d="M80.5839 153.672L79.9077 155.443C79.8401 155.578 79.9999 155.719 80.2273 155.719H100.561C100.739 155.719 100.887 155.633 100.899 155.522L101.071 153.764C101.071 153.648 100.93 153.543 100.739 153.543H80.9035C80.8438 153.538 80.7836 153.546 80.728 153.569C80.6723 153.591 80.6229 153.627 80.5839 153.672Z" fill="#4CAF4F"/>
<path opacity="0.4" d="M80.5839 153.672L79.9077 155.443C79.8401 155.578 79.9999 155.719 80.2273 155.719H100.561C100.739 155.719 100.887 155.633 100.899 155.522L101.071 153.764C101.071 153.648 100.93 153.543 100.739 153.543H80.9035C80.8438 153.538 80.7836 153.546 80.728 153.569C80.6723 153.591 80.6229 153.627 80.5839 153.672Z" fill="white"/>
<path d="M83.7863 155.891H83.2516C83.1471 155.891 83.0672 155.836 83.0733 155.768L83.3253 153.488C83.3253 153.426 83.4237 153.371 83.5282 153.371H84.0629C84.1674 153.371 84.2473 153.426 84.2412 153.488L83.9892 155.768C83.983 155.836 83.8908 155.891 83.7863 155.891Z" fill="#4CAF4F"/>
<path d="M96.3257 155.891H95.7971C95.6926 155.891 95.6127 155.836 95.6188 155.768L95.8647 153.488C95.8647 153.426 95.9692 153.371 96.0737 153.371H96.6023C96.7068 153.371 96.7928 153.426 96.7805 153.488L96.5347 155.768C96.5039 155.836 96.4363 155.891 96.3257 155.891Z" fill="#4CAF4F"/>
<g style="mix-blend-mode:multiply">
<path d="M83.3192 259.987C92.4137 259.987 99.7863 259.453 99.7863 258.794C99.7863 258.136 92.4137 257.602 83.3192 257.602C74.2246 257.602 66.852 258.136 66.852 258.794C66.852 259.453 74.2246 259.987 83.3192 259.987Z" fill="#F5F5F5"/>
</g>
<path d="M93.3506 257.11C90.4371 256.262 87.2039 255.174 85.2492 254.036C85.1939 254 85.1324 253.981 85.0771 253.95V240.759H90.9719C91.4193 240.733 91.8398 240.537 92.1472 240.21C92.4547 239.884 92.6259 239.453 92.6259 239.005C92.6259 238.556 92.4547 238.125 92.1472 237.799C91.8398 237.473 91.4193 237.276 90.9719 237.25H85.1079V177.122H81.5673V237.25H75.7095C75.4703 237.235 75.2307 237.27 75.0055 237.352C74.7803 237.434 74.5742 237.561 74.3998 237.725C74.2254 237.89 74.0865 238.088 73.9915 238.308C73.8966 238.528 73.8476 238.765 73.8476 239.005C73.8476 239.244 73.8966 239.481 73.9915 239.701C74.0865 239.921 74.2254 240.119 74.3998 240.284C74.5742 240.448 74.7803 240.575 75.0055 240.657C75.2307 240.739 75.4703 240.774 75.7095 240.759H81.5673V253.932C81.512 253.932 81.4567 253.981 81.4014 254.018C79.416 255.174 76.2074 256.262 73.2938 257.091C73.097 257.151 72.928 257.279 72.8174 257.452C72.7068 257.626 72.6619 257.833 72.6909 258.036C72.7199 258.24 72.8208 258.426 72.9753 258.562C73.1299 258.698 73.3279 258.773 73.5335 258.776H93.1109C93.3074 258.762 93.4933 258.682 93.6377 258.548C93.7821 258.414 93.8761 258.235 93.9042 258.04C93.9322 257.845 93.8926 257.646 93.7918 257.477C93.6911 257.308 93.5354 257.178 93.3506 257.11Z" fill="#E0E0E0"/>
<path d="M94.2542 171H72.3964C70.6379 171 69.2124 172.425 69.2124 174.184V180.681C69.2124 182.44 70.6379 183.865 72.3964 183.865H94.2542C96.0127 183.865 97.4383 182.44 97.4383 180.681V174.184C97.4383 172.425 96.0127 171 94.2542 171Z" fill="#4CAF4F"/>
<path d="M72.1935 183.871V184.99C72.1935 185.912 73.1955 186.662 74.4248 186.662H92.2504C93.4797 186.662 94.4817 185.912 94.4817 184.99V183.871H72.1935Z" fill="#4CAF4F"/>
<path opacity="0.3" d="M72.1935 183.871V184.99C72.1935 185.912 73.1955 186.662 74.4248 186.662H92.2504C93.4797 186.662 94.4817 185.912 94.4817 184.99V183.871H72.1935Z" fill="white"/>
</svg>
