<svg width="46" height="39" viewBox="0 0 46 39" fill="none" xmlns="http://www.w3.org/2000/svg">
<path d="M45.2445 26.4506C45.2445 33.3703 39.635 38.9799 32.7153 38.9799L13.9214 38.9799C11.9993 38.9799 10.4411 37.4217 10.4411 35.4995L10.4411 11.8331C10.4411 7.98886 13.5575 4.87245 17.4018 4.87245L41.7642 4.87246C43.6863 4.87246 45.2445 6.43066 45.2445 8.3528L45.2445 26.4506Z" fill="#E8F5E9"/>
<path d="M16.6987 6.96069C14.2129 6.96069 12.1892 9.00288 12.1892 11.4993C12.1892 13.0786 13.0002 14.473 14.2247 15.2858C12.7457 15.7803 11.4659 16.7046 10.5272 17.9138C10.0083 17.5146 9.42838 17.1936 8.80325 16.9636C9.75121 16.2598 10.3707 15.1293 10.3707 13.8587C10.3707 11.7415 8.65829 10.0082 6.55385 10.0082C4.44941 10.0082 2.73703 11.7415 2.73703 13.8587C2.73703 15.13 3.35702 16.2611 4.30577 16.9648C1.79394 17.8917 3.05176e-05 20.3184 3.05176e-05 23.1744V25.1806C0.000287609 25.3335 0.0614633 25.4801 0.169933 25.5878C0.278402 25.6957 0.425175 25.7559 0.578114 25.7554H9.37989C9.40122 25.7577 9.42256 25.759 9.44389 25.7587H23.9541C23.9754 25.759 23.997 25.7577 24.0181 25.7554H32.8205C33.1369 25.7541 33.3932 25.4973 33.3939 25.1806V23.1744C33.3939 20.3184 31.6031 17.8917 29.0926 16.9645C30.0414 16.2611 30.6614 15.1298 30.6614 13.8585C30.6614 11.7412 28.949 10.008 26.8445 10.008C24.7402 10.008 23.0277 11.7412 23.0277 13.8585C23.0277 15.129 23.6474 16.2597 24.5954 16.9633C23.969 17.1939 23.3888 17.5159 22.8691 17.9161C21.9309 16.7062 20.6529 15.7806 19.1739 15.2858C20.3982 14.473 21.2094 13.0786 21.2094 11.4993C21.2094 9.00288 19.1847 6.96069 16.6989 6.96069H16.6987ZM16.6987 8.11224C18.5579 8.11224 20.0567 9.6211 20.0567 11.4993C20.0567 13.3628 18.5813 14.857 16.7427 14.881C16.728 14.881 16.7136 14.8789 16.6987 14.8789C16.6838 14.8789 16.6697 14.881 16.6548 14.881C14.8162 14.8573 13.3417 13.3629 13.3417 11.4993C13.3417 9.62083 14.8393 8.11224 16.6985 8.11224H16.6987ZM6.55392 11.1597C8.02908 11.1597 9.21919 12.357 9.21919 13.8587C9.21919 15.3503 8.04448 16.5424 6.5832 16.5586C6.57343 16.5586 6.56392 16.5576 6.5539 16.5576C6.54413 16.5576 6.53462 16.5586 6.52459 16.5586C5.06331 16.5424 3.8886 15.35 3.8886 13.8587C3.8886 12.357 5.07871 11.1597 6.55388 11.1597H6.55392ZM26.8442 11.1597C28.3194 11.1597 29.5095 12.357 29.5095 13.8587C29.5095 15.3503 28.3348 16.5424 26.8735 16.5586C26.8637 16.5586 26.8542 16.5576 26.8442 16.5576C26.8344 16.5576 26.8249 16.5586 26.8149 16.5586C25.3536 16.5424 24.1789 15.35 24.1789 13.8587C24.1789 12.357 25.369 11.1597 26.8441 11.1597H26.8442ZM16.6546 16.0325C16.6693 16.0327 16.6837 16.0345 16.6986 16.0345C16.7132 16.0345 16.7276 16.0325 16.7425 16.0325C20.4298 16.0561 23.3807 19.0324 23.3807 22.7582L23.3805 24.6068H10.0172V22.7582C10.0172 19.0321 12.9673 16.0561 16.6541 16.0325H16.6546ZM6.50983 17.7115C6.52448 17.7117 6.53887 17.7135 6.55378 17.7135C6.56869 17.7135 6.58283 17.7115 6.59774 17.7115C7.8449 17.7215 8.98309 18.1515 9.88939 18.871C9.24087 20.0185 8.86583 21.3429 8.86583 22.7585V24.6027H1.15111V23.1744C1.15111 20.1464 3.53186 17.7351 6.50969 17.7112L6.50983 17.7115ZM26.8001 17.7115C26.815 17.7117 26.8291 17.7135 26.8441 17.7135C26.859 17.7135 26.8731 17.7115 26.888 17.7115C29.8658 17.7351 32.2466 20.1467 32.2466 23.1746V24.6027H24.5279L24.5277 22.7585C24.5277 21.3437 24.1537 20.0202 23.5064 18.873C24.413 18.1526 25.552 17.7215 26.8002 17.7115H26.8001Z" fill="#103E13"/>
</svg>
