<svg width="133" height="21" viewBox="0 0 133 21" fill="none" xmlns="http://www.w3.org/2000/svg">
<path d="M16.1669 11.3027L11.5276 19.2482L6.88839 11.3027H16.1669ZM17.4097 10.5925H5.64053L11.5276 20.6536L17.4097 10.5925Z" fill="white"/>
<path d="M24.2328 1.42026L28.872 9.36578H19.5935L24.2328 1.42026ZM24.2328 0L18.3456 10.061H30.1198L24.2328 0Z" fill="white"/>
<path d="M0 0L4.93613 8.89899L10.3301 0.223456L0 0Z" fill="#4CAF4F"/>
<path d="M11.5278 0.779419L16.7054 9.62876H6.34006L11.5278 0.779419Z" fill="#4CAF4F"/>
<path d="M18.0388 11.5609L23.2214 20.6536H12.6095L17.8777 11.5609H18.0388Z" fill="#4CAF4F"/>
<path d="M19.1608 11.0096L24.2328 19.9633L29.3752 11.0096H19.1608Z" fill="#4CAF4F"/>
<path d="M51.6621 1.43628V18.9605H48.4619L40.8378 7.93087H40.7094V18.9605H37.0044V1.43628H40.2559L47.8201 12.4574H47.9741V1.43628H51.6621Z" fill="white"/>
<path d="M60.6446 19.2172C59.2926 19.2172 58.1289 18.9434 57.1534 18.3958C56.1836 17.8425 55.4364 17.0609 54.9115 16.0512C54.3867 15.0358 54.1243 13.835 54.1243 12.4488C54.1243 11.0969 54.3867 9.91033 54.9115 8.88923C55.4364 7.86812 56.1751 7.07234 57.1277 6.50189C58.0861 5.93144 59.2099 5.64621 60.4991 5.64621C61.3662 5.64621 62.1734 5.78597 62.9207 6.06549C63.6737 6.33931 64.3297 6.75289 64.8887 7.30622C65.4535 7.85956 65.8927 8.55551 66.2065 9.39407C66.5202 10.2269 66.6771 11.2024 66.6771 12.3205V13.3216H55.579V11.0626H63.2458C63.2458 10.5378 63.1317 10.0729 62.9036 9.66789C62.6754 9.26287 62.3588 8.94627 61.9538 8.71809C61.5544 8.48421 61.0895 8.36726 60.559 8.36726C60.0057 8.36726 59.5151 8.49561 59.0872 8.75232C58.6651 9.00331 58.3343 9.34273 58.0947 9.77057C57.8551 10.1927 57.7324 10.6633 57.7267 11.1824V13.3302C57.7267 13.9805 57.8465 14.5424 58.0861 15.0159C58.3314 15.4893 58.6765 15.8544 59.1215 16.1111C59.5664 16.3678 60.0941 16.4962 60.7045 16.4962C61.1095 16.4962 61.4803 16.4391 61.8169 16.3251C62.1534 16.211 62.4415 16.0398 62.6811 15.8117C62.9207 15.5835 63.1032 15.304 63.2287 14.9731L66.6001 15.1956C66.429 16.0056 66.0781 16.713 65.5476 17.3176C65.0228 17.9166 64.344 18.3844 63.5111 18.721C62.6839 19.0518 61.7284 19.2172 60.6446 19.2172Z" fill="white"/>
<path d="M71.8668 5.81735L74.2798 10.4123L76.7527 5.81735H80.492L76.6842 12.3889L80.5947 18.9605H76.8725L74.2798 14.4169L71.7299 18.9605H67.9649L71.8668 12.3889L68.1018 5.81735H71.8668Z" fill="white"/>
<path d="M88.1246 19.2172C86.7784 19.2172 85.6204 18.932 84.6506 18.3616C83.6865 17.7854 82.9449 16.9868 82.4258 15.9657C81.9124 14.9446 81.6557 13.7694 81.6557 12.4403C81.6557 11.094 81.9153 9.91319 82.4344 8.89778C82.9592 7.87667 83.7036 7.08089 84.6677 6.51044C85.6318 5.93429 86.7784 5.64621 88.1075 5.64621C89.2541 5.64621 90.2581 5.85442 91.1195 6.27085C91.9809 6.68728 92.6626 7.272 93.1646 8.02499C93.6666 8.77799 93.9432 9.66219 93.9946 10.6776H90.5548C90.4578 10.0216 90.2011 9.4939 89.7847 9.09459C89.3739 8.68957 88.8349 8.48706 88.1674 8.48706C87.6027 8.48706 87.1092 8.64108 86.6871 8.94912C86.2707 9.25146 85.9455 9.69356 85.7116 10.2754C85.4777 10.8573 85.3608 11.5618 85.3608 12.3889C85.3608 13.2275 85.4749 13.9406 85.7031 14.5281C85.937 15.1157 86.265 15.5635 86.6871 15.8715C87.1092 16.1796 87.6027 16.3336 88.1674 16.3336C88.5839 16.3336 88.9575 16.248 89.2884 16.0769C89.6249 15.9058 89.9016 15.6576 90.1184 15.3325C90.3408 15.0016 90.4863 14.6051 90.5548 14.1431H93.9946C93.9375 15.1471 93.6637 16.0313 93.1731 16.7957C92.6883 17.5544 92.018 18.1477 91.1623 18.5755C90.3066 19.0033 89.2941 19.2172 88.1246 19.2172Z" fill="white"/>
<path d="M102.318 19.2172C100.966 19.2172 99.8025 18.9434 98.827 18.3958C97.8573 17.8425 97.11 17.0609 96.5851 16.0512C96.0603 15.0358 95.7979 13.835 95.7979 12.4488C95.7979 11.0969 96.0603 9.91033 96.5851 8.88923C97.11 7.86812 97.8487 7.07234 98.8013 6.50189C99.7597 5.93144 100.883 5.64621 102.173 5.64621C103.04 5.64621 103.847 5.78597 104.594 6.06549C105.347 6.33931 106.003 6.75289 106.562 7.30622C107.127 7.85956 107.566 8.55551 107.88 9.39407C108.194 10.2269 108.351 11.2024 108.351 12.3205V13.3216H97.2526V11.0626H104.919C104.919 10.5378 104.805 10.0729 104.577 9.66789C104.349 9.26287 104.032 8.94627 103.627 8.71809C103.228 8.48421 102.763 8.36726 102.233 8.36726C101.679 8.36726 101.189 8.49561 100.761 8.75232C100.339 9.00331 100.008 9.34273 99.7683 9.77057C99.5287 10.1927 99.406 10.6633 99.4003 11.1824V13.3302C99.4003 13.9805 99.5201 14.5424 99.7597 15.0159C100.005 15.4893 100.35 15.8544 100.795 16.1111C101.24 16.3678 101.768 16.4962 102.378 16.4962C102.783 16.4962 103.154 16.4391 103.49 16.3251C103.827 16.211 104.115 16.0398 104.355 15.8117C104.594 15.5835 104.777 15.304 104.902 14.9731L108.274 15.1956C108.103 16.0056 107.752 16.713 107.221 17.3176C106.696 17.9166 106.018 18.3844 105.185 18.721C104.358 19.0518 103.402 19.2172 102.318 19.2172Z" fill="white"/>
<path d="M114.375 11.3621V18.9605H110.729V5.81735H114.204V8.13623H114.358C114.648 7.37183 115.136 6.76715 115.821 6.32219C116.505 5.87154 117.335 5.64621 118.311 5.64621C119.224 5.64621 120.019 5.84587 120.698 6.24518C121.377 6.6445 121.905 7.21495 122.281 7.95654C122.658 8.69242 122.846 9.57092 122.846 10.592V18.9605H119.201V11.2423C119.206 10.438 119.001 9.8105 118.585 9.35985C118.168 8.90349 117.595 8.67531 116.865 8.67531C116.374 8.67531 115.941 8.78084 115.564 8.99191C115.193 9.20297 114.902 9.51102 114.691 9.91604C114.486 10.3154 114.38 10.7974 114.375 11.3621Z" fill="white"/>
<path d="M132.71 5.81735V8.55551H124.795V5.81735H132.71ZM126.592 2.66845H130.237V14.9217C130.237 15.2583 130.288 15.5207 130.391 15.709C130.493 15.8915 130.636 16.0199 130.819 16.094C131.007 16.1682 131.224 16.2053 131.469 16.2053C131.64 16.2053 131.811 16.191 131.982 16.1625C132.153 16.1283 132.285 16.1026 132.376 16.0855L132.949 18.798C132.767 18.855 132.51 18.9206 132.179 18.9948C131.848 19.0746 131.446 19.1231 130.973 19.1402C130.094 19.1745 129.324 19.0575 128.662 18.7894C128.006 18.5213 127.496 18.1049 127.131 17.5401C126.766 16.9754 126.586 16.2623 126.592 15.4009V2.66845Z" fill="white"/>
</svg>
