<svg width="108" height="17" viewBox="0 0 108 17" fill="none" xmlns="http://www.w3.org/2000/svg">
<path d="M13.0766 9.14216L9.32411 15.5689L5.57168 9.14216H13.0766ZM14.0818 8.56775H4.56235L9.32411 16.7056L14.0818 8.56775Z" fill="#263238"/>
<path d="M19.6007 1.14878L23.3531 7.57551H15.8482L19.6007 1.14878ZM19.6007 0L14.8389 8.13785H24.3624L19.6007 0Z" fill="#263238"/>
<path d="M0 0L3.99259 7.19795L8.35551 0.180742L0 0Z" fill="#4CAF4F"/>
<path d="M9.32422 0.630558L13.5122 7.78835H5.12814L9.32422 0.630558Z" fill="#4CAF4F"/>
<path d="M14.5906 9.35103L18.7827 16.7057H10.1992L14.4604 9.35103H14.5906Z" fill="#4CAF4F"/>
<path d="M15.4982 8.90517L19.6007 16.1473L23.7601 8.90517H15.4982Z" fill="#4CAF4F"/>
<path d="M41.7869 1.16176V15.3363H39.1984L33.0317 6.41491H32.9279V15.3363H29.931V1.16176H32.561L38.6793 10.0762H38.8039V1.16176H41.7869Z" fill="#263238"/>
<path d="M49.0524 15.5439C47.9589 15.5439 47.0176 15.3224 46.2286 14.8795C45.4442 14.4319 44.8397 13.7998 44.4152 12.9831C43.9907 12.1618 43.7785 11.1905 43.7785 10.0693C43.7785 8.97574 43.9907 8.016 44.4152 7.19008C44.8397 6.36416 45.4373 5.72049 46.2078 5.25908C46.983 4.79767 47.8919 4.56697 48.9347 4.56697C49.6361 4.56697 50.289 4.68001 50.8934 4.9061C51.5025 5.12758 52.0331 5.4621 52.4853 5.90967C52.9421 6.35724 53.2974 6.92016 53.5511 7.59843C53.8049 8.27209 53.9318 9.0611 53.9318 9.96546V10.7752H44.9551V8.94805H51.1564C51.1564 8.52356 51.0641 8.14751 50.8796 7.81991C50.695 7.4923 50.4389 7.23622 50.1113 7.05166C49.7883 6.86248 49.4123 6.76789 48.9832 6.76789C48.5356 6.76789 48.1388 6.87171 47.7927 7.07934C47.4513 7.28236 47.1837 7.5569 46.9899 7.90296C46.7961 8.2444 46.6969 8.62506 46.6923 9.04495V10.7822C46.6923 11.3082 46.7892 11.7627 46.983 12.1456C47.1814 12.5286 47.4605 12.8239 47.8204 13.0315C48.1803 13.2392 48.6071 13.343 49.1008 13.343C49.4284 13.343 49.7284 13.2968 50.0006 13.2046C50.2728 13.1123 50.5058 12.9739 50.6996 12.7893C50.8934 12.6047 51.0411 12.3786 51.1426 12.111L53.8695 12.291C53.7311 12.9462 53.4473 13.5183 53.0182 14.0074C52.5937 14.4919 52.0446 14.8702 51.371 15.1425C50.7019 15.4101 49.9291 15.5439 49.0524 15.5439Z" fill="#263238"/>
<path d="M58.1295 4.70539L60.0812 8.42204L62.0815 4.70539H65.106L62.0261 10.0208L65.189 15.3363H62.1783L60.0812 11.6611L58.0187 15.3363H54.9734L58.1295 10.0208L55.0842 4.70539H58.1295Z" fill="#263238"/>
<path d="M71.2797 15.5439C70.1907 15.5439 69.2541 15.3132 68.4697 14.8518C67.6899 14.3858 67.0901 13.7398 66.6702 12.9139C66.2549 12.0879 66.0473 11.1374 66.0473 10.0624C66.0473 8.97343 66.2572 8.01831 66.6771 7.197C67.1016 6.37108 67.7037 5.72741 68.4835 5.266C69.2633 4.79998 70.1907 4.56697 71.2658 4.56697C72.1932 4.56697 73.0053 4.73538 73.7021 5.07221C74.3988 5.40904 74.9502 5.88198 75.3562 6.49104C75.7622 7.10011 75.986 7.81529 76.0276 8.6366H73.2453C73.1668 8.10598 72.9592 7.67917 72.6224 7.35619C72.2901 7.02859 71.8541 6.86479 71.3143 6.86479C70.8575 6.86479 70.4583 6.98937 70.1169 7.23853C69.7801 7.48308 69.5171 7.84067 69.3279 8.31131C69.1387 8.78195 69.0441 9.35179 69.0441 10.0208C69.0441 10.6991 69.1364 11.2759 69.321 11.7511C69.5101 12.2264 69.7755 12.5886 70.1169 12.8377C70.4583 13.0869 70.8575 13.2115 71.3143 13.2115C71.6511 13.2115 71.9533 13.1423 72.2209 13.0038C72.4932 12.8654 72.7169 12.6647 72.8923 12.4017C73.0722 12.1341 73.1899 11.8134 73.2453 11.4397H76.0276C75.9814 12.2517 75.7599 12.9669 75.3631 13.5852C74.9709 14.1989 74.4288 14.6788 73.7367 15.0248C73.0445 15.3709 72.2255 15.5439 71.2797 15.5439Z" fill="#263238"/>
<path d="M82.7601 15.5439C81.6666 15.5439 80.7253 15.3224 79.9363 14.8795C79.1519 14.4319 78.5474 13.7998 78.1229 12.9831C77.6984 12.1618 77.4862 11.1905 77.4862 10.0693C77.4862 8.97574 77.6984 8.016 78.1229 7.19008C78.5474 6.36416 79.145 5.72049 79.9155 5.25908C80.6907 4.79767 81.5997 4.56697 82.6424 4.56697C83.3438 4.56697 83.9967 4.68001 84.6011 4.9061C85.2102 5.12758 85.7408 5.4621 86.193 5.90967C86.6498 6.35724 87.0051 6.92016 87.2588 7.59843C87.5126 8.27209 87.6395 9.0611 87.6395 9.96546V10.7752H78.6628V8.94805H84.8641C84.8641 8.52356 84.7718 8.14751 84.5873 7.81991C84.4027 7.4923 84.1466 7.23622 83.819 7.05166C83.496 6.86248 83.12 6.76789 82.6909 6.76789C82.2433 6.76789 81.8465 6.87171 81.5005 7.07934C81.159 7.28236 80.8914 7.5569 80.6976 7.90296C80.5038 8.2444 80.4046 8.62506 80.4 9.04495V10.7822C80.4 11.3082 80.4969 11.7627 80.6907 12.1456C80.8891 12.5286 81.1682 12.8239 81.5281 13.0315C81.888 13.2392 82.3148 13.343 82.8085 13.343C83.1361 13.343 83.4361 13.2968 83.7083 13.2046C83.9805 13.1123 84.2135 12.9739 84.4073 12.7893C84.6011 12.6047 84.7488 12.3786 84.8503 12.111L87.5772 12.291C87.4388 12.9462 87.155 13.5183 86.7259 14.0074C86.3014 14.4919 85.7523 14.8702 85.0787 15.1425C84.4096 15.4101 83.6368 15.5439 82.7601 15.5439Z" fill="#263238"/>
<path d="M92.512 9.19029V15.3363H89.5636V4.70539H92.3736V6.58102H92.4981C92.7335 5.96273 93.128 5.47364 93.6817 5.11374C94.2354 4.74922 94.9067 4.56697 95.6957 4.56697C96.434 4.56697 97.0776 4.72846 97.6267 5.05145C98.1758 5.37443 98.6026 5.83584 98.9071 6.43568C99.2117 7.03089 99.3639 7.74147 99.3639 8.56739V15.3363H96.4155V9.0934C96.4201 8.44281 96.254 7.93526 95.9172 7.57074C95.5804 7.20162 95.1167 7.01705 94.526 7.01705C94.1292 7.01705 93.7786 7.10241 93.474 7.27313C93.1741 7.44386 92.9388 7.69302 92.7681 8.02062C92.602 8.34361 92.5166 8.7335 92.512 9.19029Z" fill="#263238"/>
<path d="M107.342 4.70539V6.92016H100.94V4.70539H107.342ZM102.394 2.15841H105.342V12.0695C105.342 12.3417 105.384 12.554 105.467 12.7062C105.55 12.8539 105.665 12.9577 105.813 13.0177C105.965 13.0777 106.14 13.1077 106.339 13.1077C106.477 13.1077 106.616 13.0961 106.754 13.0731C106.892 13.0454 106.999 13.0246 107.072 13.0108L107.536 15.2048C107.388 15.2509 107.181 15.304 106.913 15.364C106.646 15.4285 106.32 15.4678 105.937 15.4816C105.227 15.5093 104.604 15.4147 104.069 15.1978C103.538 14.981 103.125 14.6442 102.83 14.1874C102.534 13.7306 102.389 13.1538 102.394 12.4571V2.15841Z" fill="#263238"/>
</svg>
