<svg width="39" height="34" viewBox="0 0 39 34" fill="none" xmlns="http://www.w3.org/2000/svg">
<g clip-path="url(#clip0_211_2052)">
<path d="M38.2808 13.5848C38.2848 13.5558 38.2848 13.5264 38.2808 13.4974C38.2846 13.4737 38.2846 13.4496 38.2808 13.4259L37.9972 11.3846C37.9563 11.1404 37.8469 10.9121 37.6813 10.7253L37.6326 10.6697L37.5436 10.5824L32.6338 6.43616L32.7715 6.5712C32.6588 6.43903 32.5174 6.33331 32.3575 6.26183C32.1977 6.19035 32.0235 6.15492 31.8479 6.15817H30.3571C30.1147 6.15346 29.8778 6.22902 29.6846 6.37263C29.4818 6.22988 29.2376 6.15471 28.9879 6.15817H27.4971C27.3016 6.15506 27.1087 6.20263 26.938 6.29608C26.7673 6.38953 26.6248 6.52554 26.5249 6.69034C26.3709 6.92571 26.3131 7.20931 26.3628 7.48463L26.5492 8.77137C26.4257 8.70276 26.286 8.66717 26.1441 8.66813H18.9252C18.6662 8.66972 18.4132 8.74414 18.196 8.88258C17.9861 9.01143 17.8175 9.19593 17.7099 9.41474L17.1509 8.94612C16.9309 8.74653 16.6404 8.63835 16.3407 8.64429H5.01416C4.75424 8.64894 4.50009 8.72012 4.2769 8.85081C3.97156 9.02602 3.74778 9.31091 3.65304 9.64509L0.0557668 21.4403C-0.011447 21.6347 -0.018059 21.8443 0.0367777 22.0423C0.0916142 22.2403 0.205416 22.4179 0.363645 22.5523C0.404874 22.5866 0.448165 22.6184 0.493279 22.6476C0.493279 22.6476 0.42035 22.5999 0.37984 22.5603L5.28965 26.7144C5.49734 26.9019 5.76889 27.0066 6.05118 27.0082H17.4669C17.7276 27.0016 17.9819 26.9276 18.2042 26.7938C18.3299 26.7264 18.4423 26.6377 18.5363 26.5317L18.5769 26.4761L18.6417 26.3967L18.6903 26.3093L19.225 26.7621C19.4297 26.9421 19.6954 27.0411 19.9704 27.04H31.4103C31.6708 27.0315 31.9246 26.9577 32.1476 26.8256C32.2705 26.7541 32.3823 26.6658 32.4798 26.5635L32.5203 26.5079L32.5851 26.4285C32.6196 26.3782 32.6495 26.325 32.6742 26.2695C32.7007 26.2214 32.7224 26.1709 32.739 26.1187L36.0203 15.3481V15.2528C36.0244 15.2158 36.0244 15.1785 36.0203 15.1416V15.0701C36.0243 15.0464 36.0243 15.0223 36.0203 14.9986C36.024 14.9484 36.024 14.8979 36.0203 14.8477H37.0736C37.1652 14.8559 37.2574 14.8559 37.3491 14.8477H37.422C37.4813 14.8303 37.5384 14.8063 37.5922 14.7762H37.6732L37.819 14.665L37.8838 14.6173L37.9972 14.4744V14.4267L38.0783 14.2917C38.0737 14.2654 38.0737 14.2385 38.0783 14.2123C38.074 14.1994 38.074 14.1854 38.0783 14.1726C38.0955 14.126 38.109 14.0782 38.1188 14.0296C38.115 14.0139 38.115 13.9976 38.1188 13.9819C38.1148 13.9583 38.1148 13.9341 38.1188 13.9104C38.1188 13.9104 38.2808 13.6006 38.2808 13.5848Z" fill="black"/>
<path d="M16.6729 9.54982C16.7159 9.58795 16.746 9.63809 16.759 9.69348C16.7721 9.74886 16.7674 9.80684 16.7458 9.85959L13.1567 21.6468C13.1115 21.7755 13.019 21.8831 12.8974 21.9487C12.7985 22.0136 12.6839 22.0519 12.5652 22.0599H1.15767C1.06025 22.0553 0.967953 22.0157 0.898404 21.9487C0.857031 21.9112 0.827994 21.8624 0.815004 21.8087C0.802014 21.7549 0.805672 21.6986 0.82549 21.6468L4.42276 9.85959C4.46421 9.72927 4.55376 9.61881 4.67392 9.54982C4.7745 9.48958 4.88849 9.45415 5.0061 9.44656H16.4136C16.5103 9.44747 16.603 9.48439 16.6729 9.54982ZM10.718 19.2719L12.865 12.2345H6.85336L4.71442 19.2719H10.718ZM27.5619 9.66895C27.6009 9.7133 27.6495 9.74846 27.7042 9.77184C27.7589 9.79522 27.8183 9.80621 27.8779 9.80398H29.3606C29.4171 9.80453 29.4727 9.79095 29.5223 9.76455C29.5719 9.73814 29.6138 9.69977 29.6441 9.65307C29.6705 9.61659 29.6891 9.57529 29.6988 9.53162C29.7085 9.48796 29.7092 9.44283 29.7008 9.3989L29.4092 7.30198C29.3814 7.20493 29.3316 7.11531 29.2634 7.03986C29.2244 6.99552 29.1758 6.96035 29.1211 6.93697C29.0664 6.91359 29.007 6.90261 28.9474 6.90483H27.4647C27.4083 6.90429 27.3526 6.91787 27.303 6.94427C27.2534 6.97068 27.2114 7.00904 27.1812 7.05575C27.1244 7.16695 27.1001 7.23843 27.1244 7.30198L27.4242 9.3989C27.4396 9.501 27.4879 9.59562 27.5619 9.66895ZM32.2692 7.28609C32.2414 7.18903 32.1915 7.09942 32.1233 7.02397C32.0861 6.97979 32.0389 6.94464 31.9855 6.92122C31.9321 6.8978 31.8739 6.88676 31.8155 6.88894H30.3247C30.2692 6.88739 30.2143 6.9006 30.1658 6.92717C30.1173 6.95374 30.077 6.99268 30.0493 7.03986C29.9953 7.11032 29.972 7.19884 29.9844 7.28609L30.2842 9.38301C30.303 9.48404 30.3507 9.57772 30.4219 9.65307C30.4616 9.69655 30.5103 9.73112 30.5649 9.75442C30.6194 9.77773 30.6784 9.78921 30.7379 9.78809H32.2287C32.2841 9.78881 32.3386 9.77525 32.387 9.74877C32.4354 9.72228 32.4758 9.68381 32.5042 9.63719C32.5323 9.60165 32.552 9.56037 32.5619 9.51639C32.5717 9.47241 32.5713 9.42684 32.5608 9.38301L32.2692 7.28609ZM26.2575 10.4632L26.1117 9.43067H18.9253C18.8124 9.43677 18.7033 9.47243 18.6093 9.53393C18.5496 9.56583 18.4977 9.61005 18.4571 9.66353C18.4166 9.71701 18.3883 9.77848 18.3743 9.8437L17.7748 11.8135C17.7509 11.8628 17.7427 11.918 17.7513 11.9719C17.7601 12.0257 17.7851 12.0758 17.8234 12.1154C17.8917 12.1783 17.9809 12.215 18.0746 12.2186H26.8085L24.6615 19.2561H15.9518C15.8395 19.2586 15.7302 19.2916 15.6359 19.3513C15.5213 19.4227 15.4376 19.533 15.4009 19.6611L14.7933 21.631C14.7734 21.6815 14.7682 21.7364 14.7782 21.7897C14.7883 21.843 14.813 21.8925 14.8499 21.9328C14.9161 22 15.006 22.0397 15.1011 22.044H26.5411C26.6594 22.034 26.7734 21.9958 26.8732 21.9328C26.9929 21.8669 27.0826 21.7591 27.1244 21.631L30.4138 10.8604H26.7112C26.6525 10.8615 26.5942 10.8508 26.5398 10.829C26.4855 10.8071 26.4363 10.7745 26.3953 10.7333C26.3283 10.6613 26.2809 10.5739 26.2575 10.4791V10.4632Z" fill="white"/>
</g>
<defs>
<clipPath id="clip0_211_2052">
<rect width="38.2838" height="20.8821" fill="white" transform="translate(0 6.15796)"/>
</clipPath>
</defs>
</svg>
