<svg width="34" height="34" viewBox="0 0 34 34" fill="none" xmlns="http://www.w3.org/2000/svg">
<g clip-path="url(#clip0_211_2072)">
<path d="M29.5395 8.13742C29.5395 8.46178 29.8057 8.72473 30.134 8.72473H30.7286C31.057 8.72473 31.3232 8.46178 31.3232 8.13742C31.3232 7.81306 31.057 7.55011 30.7286 7.55011H30.134C29.8057 7.55011 29.5395 7.81306 29.5395 8.13742Z" fill="#212326"/>
<path d="M12.2973 26.344H15.1855L14.3447 25.5134C14.1217 25.2931 13.8192 25.1694 13.5039 25.1694H12.2973C7.70012 25.1694 3.97342 21.4881 3.97342 16.947C3.97342 12.406 7.70012 8.72473 12.2973 8.72473H21.8102C26.4073 8.72473 30.134 12.406 30.134 16.947C30.134 21.4881 26.4073 25.1694 21.8102 25.1694H18.2516C17.7785 25.1694 17.3248 24.9837 16.9903 24.6533L16.0053 23.6802C15.4478 23.1295 14.6916 22.8201 13.9031 22.8201H12.2973C9.01357 22.8201 6.35166 20.1907 6.35166 16.947C6.35166 13.7034 9.01357 11.074 12.2973 11.074H21.8102C25.0939 11.074 27.7558 13.7034 27.7558 16.947C27.7558 20.1907 25.0939 22.8201 21.8102 22.8201H19.5252C19.0522 22.8201 18.5985 22.6345 18.264 22.3041L17.2789 21.331C16.7213 20.7803 15.9652 20.4709 15.1768 20.4709H12.2973C10.3271 20.4709 8.7299 18.8932 8.7299 16.947C8.7299 15.0009 10.3271 13.4232 12.2973 13.4232H21.8102C23.7804 13.4232 25.3776 15.0009 25.3776 16.947C25.3776 18.8695 23.8191 20.4324 21.8821 20.4702L21.8817 20.4709H21.0116C20.5386 20.4709 20.0849 20.2853 19.7504 19.9549L18.7652 18.9818C18.3078 18.5299 17.7166 18.2405 17.0836 18.1512L17.0537 18.1217H12.2973C11.6405 18.1217 11.1081 17.5958 11.1081 16.947C11.1081 16.2983 11.6405 15.7724 12.2973 15.7724H21.8102C22.4669 15.7724 22.9993 16.2983 22.9993 16.947C22.9993 17.5958 22.4669 18.1217 21.8102 18.1217H19.432L20.2728 18.9523C20.4958 19.1725 20.7983 19.2963 21.1136 19.2963H21.8102C23.1237 19.2963 24.1884 18.2445 24.1884 16.947C24.1884 15.6496 23.1237 14.5978 21.8102 14.5978H12.2973C10.9838 14.5978 9.91901 15.6496 9.91901 16.947C9.91901 18.2445 10.9838 19.2963 12.2973 19.2963H16.6632C17.1363 19.2963 17.5899 19.4819 17.9244 19.8123L18.9096 20.7854C19.4671 21.3361 20.2232 21.6455 21.0116 21.6455H22.1075V21.6365C24.5959 21.4849 26.5667 19.4433 26.5667 16.947C26.5667 14.3522 24.4371 12.2486 21.8102 12.2486H12.2973C9.67035 12.2486 7.54078 14.3522 7.54078 16.947C7.54078 19.542 9.67035 21.6455 12.2973 21.6455H15.1768C15.6499 21.6455 16.1035 21.8312 16.438 22.1615L17.4232 23.1346C17.9807 23.6854 18.7368 23.9948 19.5252 23.9948H21.8102C25.7506 23.9948 28.9449 20.8394 28.9449 16.947C28.9449 13.0547 25.7506 9.89934 21.8102 9.89934H12.2973C8.35684 9.89934 5.16254 13.0547 5.16254 16.947C5.16254 20.8394 8.35684 23.9948 12.2973 23.9948H13.9031C14.3762 23.9948 14.8299 24.1804 15.1644 24.5108L16.1495 25.4839C16.707 26.0346 17.4632 26.344 18.2516 26.344H21.8102C27.0641 26.344 31.3232 22.1368 31.3232 16.947C31.3232 11.7573 27.0641 7.55011 21.8102 7.55011L12.2973 7.55011C7.04339 7.55011 2.7843 11.7573 2.7843 16.947C2.7843 22.1368 7.0434 26.344 12.2973 26.344Z" fill="#212326"/>
</g>
<defs>
<clipPath id="clip0_211_2072">
<rect width="28.5388" height="18.7939" fill="white" transform="translate(2.7843 7.55011)"/>
</clipPath>
</defs>
</svg>
