<svg width="34" height="34" viewBox="0 0 34 34" fill="none" xmlns="http://www.w3.org/2000/svg">
<g clip-path="url(#clip0_211_2049)">
<path fill-rule="evenodd" clip-rule="evenodd" d="M9.7351 9.71812L2.7843 16.599C4.17459 17.9754 5.76278 19.1353 7.49435 20.0428C7.97297 21.2996 8.72319 22.4782 9.745 23.4898C13.5893 27.2954 19.8221 27.2954 23.6664 23.4898C24.6882 22.4782 25.4384 21.2996 25.9171 20.0427C27.6486 19.1353 29.2368 17.9754 30.6271 16.599L23.6819 9.72372C23.6768 9.71858 23.6716 9.71343 23.6664 9.7083C19.8221 5.90265 13.5893 5.90265 9.745 9.7083C9.7417 9.71157 9.7384 9.71485 9.7351 9.71812ZM23.0013 21.2842C20.9757 21.9609 18.8494 22.3075 16.7057 22.3075C14.562 22.3075 12.4357 21.9609 10.4102 21.2842C10.6296 21.5725 10.8719 21.8491 11.1371 22.1116C14.2126 25.1562 19.1988 25.1562 22.2742 22.1116C22.5394 21.8491 22.7818 21.5725 23.0013 21.2842ZM11.2799 10.9486C11.8022 11.2902 12.3575 11.5825 12.9386 11.8208C14.1329 12.3105 15.413 12.5626 16.7057 12.5626C17.9984 12.5626 19.2785 12.3105 20.4728 11.8208C21.0539 11.5825 21.6092 11.2902 22.1316 10.9486C19.0945 8.08787 14.3169 8.08787 11.2799 10.9486Z" fill="#3B4158"/>
</g>
<defs>
<clipPath id="clip0_211_2049">
<rect width="27.8428" height="19.4899" fill="white" transform="translate(2.7843 6.85406)"/>
</clipPath>
</defs>
</svg>
